# xmcd
#
# Track frame offsets:
#	187
#	12130
#	21172
#	35952
#	46455
#	57157
#	70990
#	83785
#	97320
#	108917
#	124402
#	135900
#
# Disc length: 1991 seconds
#
# Revision: 0
# Processed by: cddbd v1.5.2PL0 Copyright (c) Steve Scherf et al.
# Submitted via: SynApp - FreeCDDB Version: 2.5
#
DISCID=a507c50c
DTITLE=Don Gibson - Best of Volume 1
DYEAR=1991
DGENRE=Country
TTITLE0=Don Gibson - Oh lonesome me
TTITLE1=Don Gibson - Blue blue day
TTITLE2=Don Gibson - I can't stop loving you
TTITLE3=Don Gibson - Lonesome number one
TTITLE4=Don Gibson - Funny, familiar, forgotten feelings
TTITLE5=Don Gibson - Touch the morning
TTITLE6=Don Gibson - Snap your fingers
TTITLE7=Don Gibson - There goes my everything
TTITLE8=Don Gibson - Sweet sensuous sensation
TTITLE9=Don Gibson - Sweet dreams
TTITLE10=Don Gibson - A legend in my time
TTITLE11=Don Gibson - Release me
EXTD=
EXTT0=
EXTT1=
EXTT2=
EXTT3=
EXTT4=
EXTT5=
EXTT6=
EXTT7=
EXTT8=
EXTT9=
EXTT10=
EXTT11=
PLAYORDER=
